<svg version="1" xmlns="http://www.w3.org/2000/svg" width="346.667" height="346.667" viewBox="0 0 260.000000 260.000000"><path d="M0 130v130h260V0H0v130zm101.1-80.8c.6 2.4 2.3 8.8 3.9 14.3 1.5 5.5 2.7 10.1 2.5 10.3-.1.1-4.7 1.6-10.1 3.2l-9.9 2.9h7.2c5.9.1 7.4.4 8.2 1.9 1 1.9 35.1 95.8 35.1 96.7 0 .3-5.8.5-12.8.5h-12.8l-2.8-8.5-2.7-8.5H70.3l-2.9 8.5-2.9 8.5H51.7c-11.9 0-12.9-.1-12.2-1.8 4.1-10.4 33.5-92.6 33.2-92.9-.3-.2-10.7 2.5-23.3 6.1-12.6 3.5-23 6.3-23.2 6.2-.5-.6-8-28.1-7.7-28.4.3-.3 79-22.8 80.7-23.1.4-.1 1.2 1.8 1.9 4.1zM199.5 82c8.2 3.2 15.8 10.8 17.9 18 2.8 9.5 3.4 9-11.4 9h-13l-.6-2.5c-1.7-7-12.9-10.1-17.9-5-2.7 2.7-3.3 7.8-1.2 10.6 1.7 2.2 6.4 4.5 17.6 8.6 22.7 8.2 29.1 14.7 29.1 29.6 0 11.9-6.5 21.2-19 27-3.8 1.8-6.4 2.1-17 2.1s-13.4-.3-18.1-2.2c-10.9-4.3-19.9-15.4-19.9-24.4v-3.9l12.7.3 12.6.3 1.2 3.4c1.6 4.9 5.2 7.3 10.9 7.3 7.5 0 12.4-4.4 11.1-10.1-1-4.7-4.7-7.1-17.9-11.7-16.1-5.6-19.3-7.2-24.3-12.7-5.1-5.5-6.7-10.9-6.1-19.9 1-13.1 10.2-22.7 24.9-25.8 7.4-1.5 21.6-.5 28.4 2z"/><path d="M83.1 124.3c-3 8.9-5.6 16.8-5.8 17.4-.4 1 2.2 1.3 11.1 1.3 6.4 0 11.6-.3 11.5-.8 0-.4-2.6-8.2-5.7-17.4L88.5 108l-5.4 16.3z"/></svg>